<mxfile host="65bd71144e">
    <diagram id="eF60KA5CrsYkwTFyfYuj" name="Page-1">
        <mxGraphModel dx="596" dy="661" grid="1" gridSize="10" guides="1" tooltips="1" connect="1" arrows="1" fold="1" page="1" pageScale="1" pageWidth="850" pageHeight="1100" math="0" shadow="0">
            <root>
                <mxCell id="0"/>
                <mxCell id="1" parent="0"/>
                <mxCell id="8" value="" style="edgeStyle=none;html=1;fontFamily=Verdana;fontSize=14;rounded=0;" parent="1" source="2" edge="1">
                    <mxGeometry relative="1" as="geometry">
                        <mxPoint x="440" y="570" as="targetPoint"/>
                    </mxGeometry>
                </mxCell>
                <mxCell id="2" value="newArr[count] = oldArr[i]&lt;br&gt;count++&lt;br&gt;" style="whiteSpace=wrap;html=1;rounded=0;" parent="1" vertex="1">
                    <mxGeometry x="310" y="450" width="260" height="70" as="geometry"/>
                </mxCell>
                <mxCell id="5" value="" style="edgeStyle=none;html=1;rounded=0;" parent="1" target="4" edge="1">
                    <mxGeometry relative="1" as="geometry">
                        <mxPoint x="440" y="270" as="sourcePoint"/>
                    </mxGeometry>
                </mxCell>
                <mxCell id="6" value="" style="edgeStyle=none;html=1;fontSize=14;rounded=0;" parent="1" source="4" target="2" edge="1">
                    <mxGeometry relative="1" as="geometry"/>
                </mxCell>
                <mxCell id="16" style="edgeStyle=none;html=1;entryX=0;entryY=0.5;entryDx=0;entryDy=0;fontFamily=Verdana;fontSize=14;rounded=0;" parent="1" source="4" target="9" edge="1">
                    <mxGeometry relative="1" as="geometry">
                        <Array as="points">
                            <mxPoint x="200" y="360"/>
                            <mxPoint x="200" y="600"/>
                        </Array>
                    </mxGeometry>
                </mxCell>
                <mxCell id="4" value="&lt;font style=&quot;font-size: 14px;&quot;&gt;длина i-той строки в массиве oldArr &amp;lt;= 3 ?&lt;/font&gt;" style="rhombus;whiteSpace=wrap;html=1;rounded=0;" parent="1" vertex="1">
                    <mxGeometry x="270" y="300" width="340" height="120" as="geometry"/>
                </mxCell>
                <mxCell id="11" value="" style="edgeStyle=none;html=1;fontFamily=Verdana;fontSize=14;rounded=0;" parent="1" source="9" target="10" edge="1">
                    <mxGeometry relative="1" as="geometry"/>
                </mxCell>
                <mxCell id="9" value="&lt;span style=&quot;font-family: Helvetica; font-size: 12px;&quot;&gt;i++&lt;/span&gt;" style="whiteSpace=wrap;html=1;fontFamily=Verdana;fontSize=14;rounded=0;" parent="1" vertex="1">
                    <mxGeometry x="310" y="570" width="260" height="60" as="geometry"/>
                </mxCell>
                <mxCell id="14" style="edgeStyle=none;html=1;entryX=1;entryY=0.5;entryDx=0;entryDy=0;fontFamily=Verdana;fontSize=14;rounded=0;" parent="1" source="10" target="4" edge="1">
                    <mxGeometry relative="1" as="geometry">
                        <Array as="points">
                            <mxPoint x="720" y="725"/>
                            <mxPoint x="720" y="360"/>
                        </Array>
                    </mxGeometry>
                </mxCell>
                <mxCell id="20" value="" style="edgeStyle=none;html=1;fontFamily=Verdana;fontSize=14;rounded=0;" parent="1" source="10" target="19" edge="1">
                    <mxGeometry relative="1" as="geometry"/>
                </mxCell>
                <mxCell id="10" value="i меньше, чем количество элементов массива oldArr?" style="rhombus;whiteSpace=wrap;html=1;fontFamily=Verdana;fontSize=14;rounded=0;" parent="1" vertex="1">
                    <mxGeometry x="310" y="650" width="260" height="150" as="geometry"/>
                </mxCell>
                <mxCell id="13" value="Yes" style="text;html=1;align=center;verticalAlign=middle;resizable=0;points=[];autosize=1;strokeColor=none;fillColor=none;fontSize=14;fontFamily=Verdana;rounded=0;" parent="1" vertex="1">
                    <mxGeometry x="445" y="415" width="50" height="30" as="geometry"/>
                </mxCell>
                <mxCell id="15" value="Yes" style="text;html=1;align=center;verticalAlign=middle;resizable=0;points=[];autosize=1;strokeColor=none;fillColor=none;fontSize=14;fontFamily=Verdana;rounded=0;" parent="1" vertex="1">
                    <mxGeometry x="560" y="700" width="50" height="30" as="geometry"/>
                </mxCell>
                <mxCell id="18" value="No" style="text;html=1;align=center;verticalAlign=middle;resizable=0;points=[];autosize=1;strokeColor=none;fillColor=none;fontSize=14;fontFamily=Verdana;rounded=0;" parent="1" vertex="1">
                    <mxGeometry x="230" y="370" width="40" height="30" as="geometry"/>
                </mxCell>
                <mxCell id="19" value="печать исходного массива&lt;br&gt;печать полученног массива" style="whiteSpace=wrap;html=1;fontFamily=Verdana;fontSize=14;rounded=0;" parent="1" vertex="1">
                    <mxGeometry x="310" y="820" width="260" height="80" as="geometry"/>
                </mxCell>
                <mxCell id="21" value="&lt;font style=&quot;border-color: var(--border-color); font-size: 14px;&quot;&gt;&lt;font style=&quot;border-color: var(--border-color);&quot;&gt;Создание массива строк oldArr =&amp;nbsp;&lt;br&gt;&lt;span style=&quot;border-color: var(--border-color); font-size: medium;&quot;&gt;{&quot;123&quot;&lt;/span&gt;&lt;span style=&quot;border-color: var(--border-color); font-size: medium;&quot;&gt;,&amp;nbsp;&lt;/span&gt;&lt;span style=&quot;border-color: var(--border-color); font-size: medium;&quot;&gt;&quot;23&quot;&lt;/span&gt;&lt;span style=&quot;border-color: var(--border-color); font-size: medium;&quot;&gt;,&amp;nbsp;&lt;/span&gt;&lt;span style=&quot;border-color: var(--border-color); font-size: medium;&quot;&gt;&quot;hello&quot;&lt;/span&gt;&lt;span style=&quot;border-color: var(--border-color); font-size: medium;&quot;&gt;,&amp;nbsp;&lt;/span&gt;&lt;span style=&quot;border-color: var(--border-color); font-size: medium;&quot;&gt;&quot;world&quot;&lt;/span&gt;&lt;span style=&quot;border-color: var(--border-color); font-size: medium;&quot;&gt;,&amp;nbsp;&lt;/span&gt;&lt;span style=&quot;border-color: var(--border-color); font-size: medium;&quot;&gt;&quot;res&quot;}&lt;/span&gt;&lt;br&gt;&lt;/font&gt;&lt;/font&gt;&lt;font style=&quot;border-color: var(--border-color);&quot;&gt;&lt;span style=&quot;border-color: var(--border-color);&quot;&gt;&lt;font style=&quot;border-color: var(--border-color);&quot; size=&quot;3&quot;&gt;создание пустого массива строк newArr[]&lt;br style=&quot;border-color: var(--border-color);&quot;&gt;&lt;font style=&quot;&quot;&gt;создание переменной i = 0&lt;/font&gt;&lt;br style=&quot;border-color: var(--border-color);&quot;&gt;&lt;font style=&quot;&quot;&gt;создание переменной count = 0&lt;/font&gt;&lt;/font&gt;&lt;/span&gt;&lt;/font&gt;" style="ellipse;whiteSpace=wrap;html=1;" parent="1" vertex="1">
                    <mxGeometry x="210" y="120" width="480" height="150" as="geometry"/>
                </mxCell>
                <mxCell id="22" value="No" style="text;html=1;align=center;verticalAlign=middle;resizable=0;points=[];autosize=1;strokeColor=none;fillColor=none;" vertex="1" parent="1">
                    <mxGeometry x="470" y="785" width="40" height="30" as="geometry"/>
                </mxCell>
            </root>
        </mxGraphModel>
    </diagram>
</mxfile>